<svg xmlns="http://www.w3.org/2000/svg" version="1.1" xmlns:xlink="http://www.w3.org/1999/xlink"  width="1500" height="935" viewBox="0 0 1500 935"><g transform="matrix(1,0,0,1,-0.9090909090909918,0.3785425101214628)"><svg viewBox="0 0 396 247" data-background-color="#d2d6dc" preserveAspectRatio="xMidYMid meet" height="935" width="1500" xmlns="http://www.w3.org/2000/svg" xmlns:xlink="http://www.w3.org/1999/xlink"><g id="tight-bounds" transform="matrix(1,0,0,1,0.2400000000000091,-0.09999999999999432)"><svg viewBox="0 0 395.52 247.2" height="247.2" width="395.52"><g><svg></svg></g><g><svg viewBox="0 0 395.52 247.2" height="247.2" width="395.52"><g transform="matrix(1,0,0,1,97.0362018803947,47.215199999999996)"><svg viewBox="0 0 201.44759623921058 152.7696" height="152.7696" width="201.44759623921058"><g><svg viewBox="0 0 201.44759623921058 152.7696" height="152.7696" width="201.44759623921058"><g><svg viewBox="0 0 270.12313246023564 204.85031177882536" height="152.7696" width="201.44759623921058"><g><svg viewBox="0 0 144.79652628533336 204.85031177882536" height="204.85031177882536" width="144.79652628533336"><g id="textblocktransform"><svg viewBox="0 0 144.79652628533336 204.85031177882536" height="204.85031177882536" width="144.79652628533336" id="textblock"><g><svg viewBox="0 0 144.79652628533336 151.825483872" height="151.825483872" width="144.79652628533336"><g transform="matrix(1,0,0,1,0,0)"><svg width="144.79652628533336" viewBox="2.37 -26 25.14 26.37" height="151.825483872" data-palette-color="#6b7280"><path d="M2.37-12.55L2.37-12.55Q2.37-15.41 3.34-17.85 4.32-20.29 6.1-22.12L6.1-22.12Q9.91-26 16.06-26L16.06-26Q21.26-26 24.41-22.56L24.41-22.56Q27.51-19.24 27.51-14.21L27.51-14.21Q27.51-12.28 27.22-11.57L27.22-11.57Q24.78-10.89 17.29-10.89L17.29-10.89 8.69-10.89Q9.33-8.28 11.65-6.82 13.96-5.37 17.68-5.37L17.68-5.37Q21.56-5.37 24.34-6.76L24.34-6.76Q25.07-7.13 25.44-7.45L25.44-7.45Q25.39-6.42 25.32-5.35L25.32-5.35 25.05-1.54Q23.19-0.27 19.04 0.22L19.04 0.22Q17.82 0.37 16.7 0.37L16.7 0.37Q10.5 0.37 6.45-3.25L6.45-3.25Q2.37-6.88 2.37-12.55ZM21.02-15.63L21.02-15.63Q20.02-20.87 15.31-20.87L15.31-20.87Q11.6-20.87 9.67-17.68L9.67-17.68Q9.08-16.7 8.76-15.53L8.76-15.53Q9.35-15.5 10.21-15.48L10.21-15.48 12.01-15.48Q12.92-15.45 13.75-15.45L13.75-15.45 15.14-15.45Q16.38-15.45 17.58-15.48L17.58-15.48 19.58-15.55Q20.39-15.58 21.02-15.63Z" opacity="1" transform="matrix(1,0,0,1,0,0)" fill="#6b7280" class="wordmark-text-0" id="text-0"></path></svg></g></svg></g><g transform="matrix(1,0,0,1,0,187.66783680256628)"><svg viewBox="0 0 144.79652628533336 17.182474976259083" height="17.182474976259083" width="144.79652628533336"><g transform="matrix(1,0,0,1,0,0)"><svg width="144.79652628533336" viewBox="1.2499999999999998 -39 418.36 49.650000000000006" height="17.182474976259083" data-palette-color="#6b7280"><path d="M24.65-29.3L26-25.15Q24.5-24.65 22.7-24.5 20.9-24.35 18.3-24.35L18.3-24.35Q22.95-22.25 22.95-17.7L22.95-17.7Q22.95-13.75 20.25-11.25 17.55-8.75 12.9-8.75L12.9-8.75Q11.1-8.75 9.55-9.25L9.55-9.25Q8.95-8.85 8.6-8.18 8.25-7.5 8.25-6.8L8.25-6.8Q8.25-4.65 11.7-4.65L11.7-4.65 15.9-4.65Q18.55-4.65 20.6-3.7 22.65-2.75 23.78-1.1 24.9 0.55 24.9 2.65L24.9 2.65Q24.9 6.5 21.75 8.58 18.6 10.65 12.55 10.65L12.55 10.65Q8.3 10.65 5.83 9.78 3.35 8.9 2.3 7.15 1.25 5.4 1.25 2.65L1.25 2.65 5.4 2.65Q5.4 4.25 6 5.18 6.6 6.1 8.15 6.58 9.7 7.05 12.55 7.05L12.55 7.05Q16.7 7.05 18.48 6.03 20.25 5 20.25 2.95L20.25 2.95Q20.25 1.1 18.85 0.15 17.45-0.8 14.95-0.8L14.95-0.8 10.8-0.8Q7.45-0.8 5.73-2.23 4-3.65 4-5.8L4-5.8Q4-7.1 4.75-8.3 5.5-9.5 6.9-10.45L6.9-10.45Q4.6-11.65 3.53-13.43 2.45-15.2 2.45-17.75L2.45-17.75Q2.45-20.4 3.78-22.5 5.1-24.6 7.43-25.78 9.75-26.95 12.6-26.95L12.6-26.95Q15.7-26.9 17.8-27.18 19.9-27.45 21.28-27.93 22.65-28.4 24.65-29.3L24.65-29.3ZM12.6-23.65Q10-23.65 8.58-22.03 7.15-20.4 7.15-17.75L7.15-17.75Q7.15-15.05 8.6-13.43 10.05-11.8 12.7-11.8L12.7-11.8Q15.4-11.8 16.82-13.38 18.25-14.95 18.25-17.8L18.25-17.8Q18.25-23.65 12.6-23.65L12.6-23.65ZM48.5-6.15Q48.5-4.55 49.05-3.78 49.6-3 50.7-2.6L50.7-2.6 49.65 0.6Q47.6 0.35 46.35-0.55 45.1-1.45 44.5-3.35L44.5-3.35Q41.85 0.6 36.65 0.6L36.65 0.6Q32.75 0.6 30.5-1.6 28.25-3.8 28.25-7.35L28.25-7.35Q28.25-11.55 31.27-13.8 34.3-16.05 39.85-16.05L39.85-16.05 43.9-16.05 43.9-18Q43.9-20.8 42.55-22 41.2-23.2 38.4-23.2L38.4-23.2Q35.5-23.2 31.3-21.8L31.3-21.8 30.15-25.15Q35.05-26.95 39.25-26.95L39.25-26.95Q43.9-26.95 46.2-24.68 48.5-22.4 48.5-18.2L48.5-18.2 48.5-6.15ZM37.7-2.85Q41.65-2.85 43.9-6.95L43.9-6.95 43.9-13 40.45-13Q33.15-13 33.15-7.6L33.15-7.6Q33.15-5.25 34.3-4.05 35.45-2.85 37.7-2.85L37.7-2.85ZM84.4-26.95Q87.65-26.95 89.59-24.78 91.55-22.6 91.55-18.9L91.55-18.9 91.55 0 86.95 0 86.95-18.25Q86.95-23.35 83.25-23.35L83.25-23.35Q81.3-23.35 79.95-22.23 78.6-21.1 77.05-18.7L77.05-18.7 77.05 0 72.45 0 72.45-18.25Q72.45-23.35 68.75-23.35L68.75-23.35Q66.75-23.35 65.4-22.2 64.05-21.05 62.55-18.7L62.55-18.7 62.55 0 57.95 0 57.95-26.35 61.9-26.35 62.3-22.5Q65.25-26.95 69.9-26.95L69.9-26.95Q72.35-26.95 74.07-25.7 75.8-24.45 76.55-22.2L76.55-22.2Q78.1-24.5 79.97-25.73 81.85-26.95 84.4-26.95L84.4-26.95ZM100.79-26.35L105.39-26.35 105.39 0 100.79 0 100.79-26.35ZM103.04-39Q104.49-39 105.39-38.1 106.29-37.2 106.29-35.85L106.29-35.85Q106.29-34.5 105.39-33.63 104.49-32.75 103.04-32.75L103.04-32.75Q101.64-32.75 100.74-33.63 99.84-34.5 99.84-35.85L99.84-35.85Q99.84-37.2 100.74-38.1 101.64-39 103.04-39L103.04-39ZM127.29-26.95Q130.89-26.95 132.92-24.8 134.94-22.65 134.94-18.9L134.94-18.9 134.94 0 130.34 0 130.34-18.25Q130.34-21.05 129.29-22.2 128.24-23.35 126.19-23.35L126.19-23.35Q124.09-23.35 122.49-22.15 120.89-20.95 119.49-18.7L119.49-18.7 119.49 0 114.89 0 114.89-26.35 118.84-26.35 119.24-22.45Q120.64-24.55 122.72-25.75 124.79-26.95 127.29-26.95L127.29-26.95ZM164.09-29.3L165.44-25.15Q163.94-24.65 162.14-24.5 160.34-24.35 157.74-24.35L157.74-24.35Q162.39-22.25 162.39-17.7L162.39-17.7Q162.39-13.75 159.69-11.25 156.99-8.75 152.34-8.75L152.34-8.75Q150.54-8.75 148.99-9.25L148.99-9.25Q148.39-8.85 148.04-8.18 147.69-7.5 147.69-6.8L147.69-6.8Q147.69-4.65 151.14-4.65L151.14-4.65 155.34-4.65Q157.99-4.65 160.04-3.7 162.09-2.75 163.21-1.1 164.34 0.55 164.34 2.65L164.34 2.65Q164.34 6.5 161.19 8.58 158.04 10.65 151.99 10.65L151.99 10.65Q147.74 10.65 145.26 9.78 142.79 8.9 141.74 7.15 140.69 5.4 140.69 2.65L140.69 2.65 144.84 2.65Q144.84 4.25 145.44 5.18 146.04 6.1 147.59 6.58 149.14 7.05 151.99 7.05L151.99 7.05Q156.14 7.05 157.91 6.03 159.69 5 159.69 2.95L159.69 2.95Q159.69 1.1 158.29 0.15 156.89-0.8 154.39-0.8L154.39-0.8 150.24-0.8Q146.89-0.8 145.16-2.23 143.44-3.65 143.44-5.8L143.44-5.8Q143.44-7.1 144.19-8.3 144.94-9.5 146.34-10.45L146.34-10.45Q144.04-11.65 142.96-13.43 141.89-15.2 141.89-17.75L141.89-17.75Q141.89-20.4 143.21-22.5 144.54-24.6 146.86-25.78 149.19-26.95 152.04-26.95L152.04-26.95Q155.14-26.9 157.24-27.18 159.34-27.45 160.71-27.93 162.09-28.4 164.09-29.3L164.09-29.3ZM152.04-23.65Q149.44-23.65 148.01-22.03 146.59-20.4 146.59-17.75L146.59-17.75Q146.59-15.05 148.04-13.43 149.49-11.8 152.14-11.8L152.14-11.8Q154.84-11.8 156.26-13.38 157.69-14.95 157.69-17.8L157.69-17.8Q157.69-23.65 152.04-23.65L152.04-23.65ZM193.03-26.95Q195.38-26.95 197.33-26.28 199.28-25.6 201.08-24.1L201.08-24.1 198.88-21.2Q197.48-22.2 196.16-22.68 194.83-23.15 193.23-23.15L193.23-23.15Q190.03-23.15 188.26-20.6 186.48-18.05 186.48-13.05L186.48-13.05Q186.48-8.05 188.23-5.68 189.98-3.3 193.23-3.3L193.23-3.3Q194.78-3.3 196.08-3.78 197.38-4.25 198.98-5.3L198.98-5.3 201.08-2.3Q197.48 0.6 193.03 0.6L193.03 0.6Q187.68 0.6 184.61-3 181.53-6.6 181.53-12.95L181.53-12.95Q181.53-17.15 182.93-20.3 184.33-23.45 186.91-25.2 189.48-26.95 193.03-26.95L193.03-26.95ZM217.23-26.95Q222.78-26.95 225.86-23.25 228.93-19.55 228.93-13.2L228.93-13.2Q228.93-9.1 227.53-5.98 226.13-2.85 223.48-1.13 220.83 0.6 217.18 0.6L217.18 0.6Q211.63 0.6 208.53-3.1 205.43-6.8 205.43-13.15L205.43-13.15Q205.43-17.25 206.83-20.38 208.23-23.5 210.88-25.23 213.53-26.95 217.23-26.95L217.23-26.95ZM217.23-23.25Q210.38-23.25 210.38-13.15L210.38-13.15Q210.38-3.1 217.18-3.1L217.18-3.1Q223.98-3.1 223.98-13.2L223.98-13.2Q223.98-23.25 217.23-23.25L217.23-23.25ZM262.98-26.95Q266.23-26.95 268.18-24.78 270.13-22.6 270.13-18.9L270.13-18.9 270.13 0 265.53 0 265.53-18.25Q265.53-23.35 261.83-23.35L261.83-23.35Q259.88-23.35 258.53-22.23 257.18-21.1 255.63-18.7L255.63-18.7 255.63 0 251.03 0 251.03-18.25Q251.03-23.35 247.33-23.35L247.33-23.35Q245.33-23.35 243.98-22.2 242.63-21.05 241.13-18.7L241.13-18.7 241.13 0 236.53 0 236.53-26.35 240.48-26.35 240.88-22.5Q243.83-26.95 248.48-26.95L248.48-26.95Q250.93-26.95 252.65-25.7 254.38-24.45 255.13-22.2L255.13-22.2Q256.68-24.5 258.55-25.73 260.43-26.95 262.98-26.95L262.98-26.95ZM291.48-26.95Q296.53-26.95 298.88-23.35 301.23-19.75 301.23-13.2L301.23-13.2Q301.23-7 298.53-3.2 295.83 0.6 290.88 0.6L290.88 0.6Q286.48 0.6 283.98-2.4L283.98-2.4 283.98 10.1 279.38 10.65 279.38-26.35 283.33-26.35 283.68-22.8Q285.13-24.8 287.18-25.88 289.23-26.95 291.48-26.95L291.48-26.95ZM289.78-3.15Q296.28-3.15 296.28-13.2L296.28-13.2Q296.28-23.3 290.33-23.3L290.33-23.3Q288.38-23.3 286.78-22.15 285.18-21 283.98-19.2L283.98-19.2 283.98-6.35Q284.98-4.8 286.48-3.98 287.98-3.15 289.78-3.15L289.78-3.15ZM328.67-26.35L328.67 0 324.72 0 324.37-4.1Q322.87-1.65 320.92-0.53 318.97 0.6 316.17 0.6L316.17 0.6Q312.72 0.6 310.77-1.5 308.82-3.6 308.82-7.45L308.82-7.45 308.82-26.35 313.42-26.35 313.42-7.95Q313.42-5.25 314.37-4.13 315.32-3 317.47-3L317.47-3Q321.32-3 324.07-7.55L324.07-7.55 324.07-26.35 328.67-26.35ZM349.72-4.25L351.47-1.2Q348.87 0.6 345.57 0.6L345.57 0.6Q342.22 0.6 340.35-1.33 338.47-3.25 338.47-6.9L338.47-6.9 338.47-22.8 333.87-22.8 333.87-26.35 338.47-26.35 338.47-32.3 343.07-32.85 343.07-26.35 349.32-26.35 348.82-22.8 343.07-22.8 343.07-7.1Q343.07-5.05 343.8-4.13 344.52-3.2 346.22-3.2L346.22-3.2Q347.77-3.2 349.72-4.25L349.72-4.25ZM376.12-13.95Q376.12-12.8 376.02-11.6L376.02-11.6 359.22-11.6Q359.52-7.25 361.42-5.2 363.32-3.15 366.32-3.15L366.32-3.15Q368.22-3.15 369.82-3.7 371.42-4.25 373.17-5.45L373.17-5.45 375.17-2.7Q370.97 0.6 365.97 0.6L365.97 0.6Q360.47 0.6 357.39-3 354.32-6.6 354.32-12.9L354.32-12.9Q354.32-17 355.64-20.18 356.97-23.35 359.44-25.15 361.92-26.95 365.27-26.95L365.27-26.95Q370.52-26.95 373.32-23.5 376.12-20.05 376.12-13.95L376.12-13.95ZM371.57-15L371.57-15.3Q371.57-19.2 370.02-21.25 368.47-23.3 365.37-23.3L365.37-23.3Q359.72-23.3 359.22-15L359.22-15 371.57-15ZM394.92-26.95Q396.32-26.95 397.52-26.65L397.52-26.65 396.67-22.15Q395.47-22.45 394.37-22.45L394.37-22.45Q391.92-22.45 390.42-20.65 388.92-18.85 388.07-15.05L388.07-15.05 388.07 0 383.47 0 383.47-26.35 387.42-26.35 387.87-21Q388.92-23.95 390.72-25.45 392.52-26.95 394.92-26.95L394.92-26.95ZM409.91-26.95Q412.61-26.95 414.76-26.2 416.91-25.45 418.86-23.95L418.86-23.95 416.91-21.05Q415.11-22.2 413.49-22.75 411.86-23.3 410.06-23.3L410.06-23.3Q407.81-23.3 406.51-22.38 405.21-21.45 405.21-19.85L405.21-19.85Q405.21-18.25 406.44-17.35 407.66-16.45 410.86-15.6L410.86-15.6Q415.26-14.5 417.44-12.6 419.61-10.7 419.61-7.4L419.61-7.4Q419.61-3.5 416.59-1.45 413.56 0.6 409.21 0.6L409.21 0.6Q403.21 0.6 399.26-2.85L399.26-2.85 401.71-5.65Q405.06-3.1 409.11-3.1L409.11-3.1Q411.71-3.1 413.24-4.17 414.76-5.25 414.76-7.1L414.76-7.1Q414.76-8.45 414.21-9.28 413.66-10.1 412.31-10.73 410.96-11.35 408.36-12.05L408.36-12.05Q404.16-13.15 402.29-15 400.41-16.85 400.41-19.7L400.41-19.7Q400.41-21.75 401.64-23.43 402.86-25.1 405.04-26.03 407.21-26.95 409.91-26.95L409.91-26.95Z" opacity="1" transform="matrix(1,0,0,1,0,0)" fill="#6b7280" class="slogan-text-1" id="text-1"></path></svg></g></svg></g></svg></g></svg></g><g transform="matrix(1,0,0,1,180.63887921589964,72.42533770825523)"><svg viewBox="0 0 89.48425324433602 59.999636362314895" height="59.999636362314895" width="89.48425324433602"><g><svg xmlns="http://www.w3.org/2000/svg" xmlns:xlink="http://www.w3.org/1999/xlink" version="1.1" x="0" y="0" viewBox="4.999073832280332 20.56300000000001 90.00082456623676 60.34600000000001" enable-background="new 0 0 100 100" xml:space="preserve" height="59.999636362314895" width="89.48425324433602" class="icon-icon-0" data-fill-palette-color="accent" id="icon-0"><path d="M94.455 44.581c-0.068-0.212-0.112-0.435-0.124-0.66-0.174-2.529-0.657-4.665-1.033-6.007-0.031-0.101-0.085-0.276-0.129-0.458-1.941-7.555-4.847-11.636-4.876-11.676-0.324-0.448-0.503-0.996-0.505-1.55-0.024-0.31-0.435-3.667-7.451-3.667h-4.541c-3.135 0-5.42 0.683-6.606 1.972-0.659 0.714-1.662 1.016-2.593 0.776-3.737-0.938-8.337-1.826-16.643-1.967-8.218 0.141-12.822 1.029-16.56 1.967-0.938 0.239-1.938-0.062-2.593-0.778-1.184-1.288-3.469-1.97-6.602-1.97h-4.548c-7.021 0-7.429 3.352-7.454 3.734-0.046 0.812-0.457 1.55-1.072 2.026-0.808 1.412-2.778 5.218-4.307 11.15-0.828 3.308-1.064 5.381-1.177 6.377-1.538 9.966-0.515 27.87 5.293 34.647 1.394 1.626 2.925 2.412 4.68 2.412 3.635 0 4.001-0.918 5.603-6.455 0.391-1.348 0.825-2.852 1.387-4.497 3.035-8.931 7.791-9.537 18.22-10.863l1.379-0.178c2.703-0.269 4.998-0.403 7.747-0.449 2.847 0.049 5.139 0.181 7.759 0.441l1.455 0.186c10.427 1.326 15.188 1.933 18.223 10.863 0.562 1.646 0.996 3.154 1.39 4.507 1.602 5.527 1.967 6.445 5.603 6.445 1.755 0 3.286-0.786 4.678-2.412C94.753 71.856 95.847 54.482 94.455 44.581zM25.713 55.788c-6.97 0-12.625-5.654-12.625-12.625 0-6.97 5.654-12.625 12.625-12.625 6.973 0 12.622 5.655 12.622 12.625C38.335 50.134 32.686 55.788 25.713 55.788zM74.282 30.537c2.505 0 4.544 2.032 4.544 4.544 0 2.511-2.039 4.543-4.544 4.543-2.507 0-4.548-2.032-4.548-4.543C69.734 32.569 71.775 30.537 74.282 30.537zM66.201 47.706c-2.518 0-4.549-2.03-4.549-4.543 0-2.51 2.031-4.541 4.549-4.541 2.505 0 4.539 2.031 4.539 4.541C70.74 45.676 68.706 47.706 66.201 47.706zM74.282 55.788c-2.507 0-4.548-2.038-4.548-4.547 0-2.507 2.041-4.544 4.548-4.544 2.505 0 4.544 2.037 4.544 4.544C78.826 53.75 76.787 55.788 74.282 55.788zM82.355 47.706c-2.504 0-4.541-2.03-4.541-4.543 0-2.51 2.037-4.541 4.541-4.541 2.518 0 4.551 2.031 4.551 4.541C86.906 45.676 84.873 47.706 82.355 47.706z" fill="#6b7280" ></path><path d="M30.981 40.338h-2.446v-2.445c0-1.56-1.265-2.822-2.822-2.822-1.555 0-2.822 1.262-2.822 2.822v2.445h-2.449c-1.56 0-2.825 1.267-2.825 2.825 0 1.562 1.265 2.822 2.825 2.822h2.449v2.446c0 1.56 1.267 2.824 2.822 2.824 1.558 0 2.822-1.264 2.822-2.824v-2.446h2.446c1.558 0 2.825-1.261 2.825-2.822C33.806 41.605 32.539 40.338 30.981 40.338z" fill="#6b7280"></path></svg></g></svg></g></svg></g></svg></g></svg></g><g><path d="M224.324 0c68.262 0 123.6 55.338 123.6 123.6 0 68.262-55.338 123.6-123.6 123.6-32.919 0-62.832-12.869-84.983-33.85h7.611c20.76 17.913 47.801 28.745 77.372 28.745 65.443 0 118.495-53.052 118.494-118.495 0-65.443-53.052-118.495-118.494-118.495-29.571 0-56.612 10.832-77.372 28.745l-7.611 0c22.151-20.981 52.064-33.85 84.983-33.85z" fill="#6b7280" stroke="transparent"></path></g></svg></g><defs></defs></svg><rect width="395.52" height="247.2" fill="none" stroke="none" visibility="hidden"></rect></g></svg></g></svg>